<?xml version="1.0" encoding="UTF-8"?><svg xmlns="http://www.w3.org/2000/svg" viewBox="0 0 143.99 124.56"><defs><style>.d{fill:#69b7a2;}.e{fill:#68b7a2;}.f{fill:#67b7a3;}.g{fill:#66b7a4;}.h,.i{fill:#fff;}.j{fill:#6ab7a1;}.k{fill:#64b7a6;}.l{fill:#80b98d;}.m{fill:#7eb98f;}.n{fill:#73b899;}.o{fill:#98bb78;}.p{fill:#6bb7a0;}.q{fill:#7db990;}.r{fill:#97bb79;}.s{fill:#96ba7a;}.t{fill:#7cb891;}.u{fill:#91ba7e;}.v{fill:#a0bb71;}.w{fill:#83b98b;}.x{fill:#9ebb73;}.y{fill:#9fbb72;}.a`{fill:#84b98a;}.aa{fill:#c1be54;}.ab{fill:#b4bd5f;}.ac{fill:#b7bd5c;}.ad{fill:#b5bd5e;}.ae{fill:#b8bd5c;}.af{fill:#9dbb73;}.ag{fill:#89b985;}.ah{fill:#9cbb74;}.ai{fill:#9bbb75;}.aj{fill:#8cba83;}.ak{fill:#c2be53;}.al{fill:#90ba7f;}.am{fill:#8dba82;}.an{fill:#8fba80;}.ao{fill:#b3bd60;}.ap{fill:#b6bd5d;}.aq{fill:#72b89a;}.ar{fill:#65b7a5;}.as{fill:#31b3d3;}.at{fill:#2eb3d6;}.au{fill:#30b3d4;}.av{fill:#babd5a;}.aw{fill:#8bba83;}.ax{fill:#b9bd5b;}.ay{fill:#8eba81;}.b`{fill:#92ba7d;}.ba{fill:#cf8187;}.bb{fill:#cf7c8c;}.bc{fill:#cf7b8d;}.bd{fill:#cf8088;}.be{fill:#cf7f89;}.bf{fill:#cf7d8b;}.bg{fill:#cf7e8a;}.bh{fill:#ce8683;}.bi{fill:#ce8782;}.bj{fill:#ce8286;}.bk{fill:#ce8584;}.bl{fill:#ce8386;}.bm{fill:#ce8485;}.bn{fill:#abbc67;}.bo{fill:#a5bc6c;}.bp{fill:#a7bc6b;}.bq{fill:#a8bc6a;}.br{fill:#aabc68;}.bs{fill:#bcbd58;}.bt{fill:#a6bc6b;}.bu{fill:#b0bc63;}.bv{fill:#adbc65;}.bw{fill:#da35cc;}.bx{fill:#da36cb;}.by{fill:#da38ca;}.c`{fill:#da39c9;}.ca{fill:#da3ac8;}.cb{fill:#da37cb;}.cc{fill:#a4bc6d;}.cd{fill:#b2bd61;}.ce{fill:#b1bc62;}.cf{fill:#aebc64;}.cg{fill:#bbbd59;}.ch{fill:#a3bb6e;}.ci{fill:#bdbd57;}.cj{fill:#bfbe55;}.ck{fill:#c0be54;}.cl{fill:#dc29d7;}.cm{fill:#d93ec4;}.cn{fill:#d941c1;}.co{fill:#d93dc5;}.cp{fill:#d93cc6;}.cq{fill:#d93fc3;}.cr{fill:#d93bc7;}.cs{fill:#a9bc69;}.ct{fill:#bebd56;}.cu{fill:#cd8d7c;}.cv{fill:#cd8b7e;}.cw{fill:#cd8881;}.cx{fill:#cd8a7f;}.cy{fill:#cd8980;}.d`{fill:#cd8c7d;}.da{fill:#cc907a;}.db{fill:#cc8f7b;}.dc{fill:#c6ba54;}.dd{fill:#c6b558;}.de{fill:#cb9a71;}.df{fill:#ca9b70;}.dg{fill:#ca9c6f;}.dh{fill:#ca9f6c;}.di{fill:#ca9d6e;}.dj{fill:#caa06b;}.dk{fill:#caa16a;}.dl{fill:#cb9575;}.dm{fill:#c9a765;}.dn{fill:#ca9e6d;}.do{fill:#d16f98;}.dp{fill:#d17097;}.dq{fill:#d17493;}.dr{fill:#d16e99;}.ds{fill:#d17394;}.dt{fill:#d07691;}.du{fill:#d07592;}.dv{fill:#d07890;}.dw{fill:#d07790;}.dx{fill:#d17196;}.dy{fill:#d17295;}.e`{fill:#e013eb;}.ea{fill:#e014ea;}.eb{fill:#e012ec;}.ec{fill:#e011ed;}.ed{fill:#c9a269;}.ee{fill:#c9a567;}.ef{fill:#c9a666;}.eg{fill:#c9a369;}.eh{fill:#c9a468;}.ei{fill:#cc9377;}.ej{fill:#cc8e7c;}.ek{fill:#cc9179;}.el{fill:#cc9476;}.em{fill:#cc9278;}.en{fill:#d460a5;}.eo{fill:#d461a4;}.ep{fill:#d45ea7;}.eq{fill:#d45fa6;}.er{fill:#d45baa;}.es{fill:#d45ca9;}.et{fill:#d45da8;}.eu{fill:#d366a0;}.ev{fill:#d3679f;}.ew{fill:#d364a2;}.ex{fill:#d365a1;}.ey{fill:#d362a3;}.f`{fill:#d363a3;}.fa{fill:#d26a9c;}.fb{fill:#d2699d;}.fc{fill:#d26b9b;}.fd{fill:#d2689e;}.fe{fill:#d26d9a;}.ff{fill:#d26c9a;}.fg{fill:#d0798f;}.fh{fill:#d07a8e;}.fi{fill:#c3be52;}.fj{fill:#c4be51;}.fk{fill:#d652b2;}.fl{fill:#d653b1;}.fm{fill:#d650b4;}.fn{fill:#d651b3;}.fo{fill:#d843c0;}.fp{fill:#d847bc;}.fq{fill:#d846bd;}.fr{fill:#d845be;}.fs{fill:#d844bf;}.ft{fill:#d64fb5;}.fu{fill:#d64eb6;}.fv{fill:#df1ae5;}.fw{fill:#df16e8;}.fx{fill:#df19e6;}.fy{fill:#df15e9;}.g`{fill:#df18e7;}.ga{fill:#df17e8;}.gb{fill:#de21de;}.gc{fill:#dd24dc;}.gd{fill:#de1be4;}.ge{fill:#dd25db;}.gf{fill:#de1ee1;}.gg{fill:#de20df;}.gh{fill:#de1de2;}.gi{fill:#dd26da;}.gj{fill:#de1ce3;}.gk{fill:#de1fe0;}.gl{fill:#d654b0;}.gm{fill:#dc2bd5;}.gn{fill:#dc2dd4;}.go{fill:#dc2cd4;}.gp{fill:#dc28d8;}.gq{fill:#dc2ad6;}.gr{fill:#db33ce;}.gs{fill:#db31d0;}.gt{fill:#db34cd;}.gu{fill:#db32cf;}.gv{fill:#db30d1;}.gw{fill:#db2fd2;}.gx{fill:#db2ed3;}.gy{fill:#afbc64;}.h`{fill:#c7b25b;}.ha{fill:#c7b15c;}.hb{fill:#c7b05d;}.hc{fill:#c7b35a;}.hd{fill:#c7ae5f;}.he{fill:#c7af5e;}.hf{fill:#acbc66;}.hg{fill:#d940c2;}.hh{fill:#cb9773;}.hi{fill:#cb9972;}.hj{fill:#cb9872;}.hk{fill:#cb9674;}.hl{fill:#c7b459;}.hm{fill:#d55aab;}.hn{fill:#d559ac;}.ho{fill:#d558ad;}.hp{fill:#d556ae;}.hq{fill:#d555af;}.hr{fill:#d557ad;}.hs{fill:#c5bb53;}.ht{fill:#c5bd51;}.hu{fill:#c5bc52;}.hv{fill:#c5be50;}.hw{fill:#c6b955;}.hx{fill:#c6b855;}.hy{fill:#c6b657;}.i`{fill:#c6b756;}.ia{fill:#dd27d9;}.ib{fill:#dd22de;}.ic{fill:#dd23dd;}.id{fill:#c8ac60;}.ie{fill:#c8a864;}.if{fill:#c8a963;}.ig{fill:#c8aa62;}.ih{fill:#c8ad5f;}.ii{fill:#c8ab61;}.ij{fill:#d74db7;}.ik{fill:#d74cb7;}.il{fill:#d842c1;}.im{fill:#d748bb;}.in{fill:#d74bb8;}.io{fill:#d749ba;}.ip{fill:#d74ab9;}.iq{fill:#40b4c6;}.ir{fill:#41b4c5;}.is{fill:#3eb4c8;}.it{fill:#3fb4c7;}.iu{fill:#34b3d1;}.iv{fill:#35b3d0;}.iw{fill:#42b4c4;}.ix{fill:#43b4c3;}.iy{fill:#3cb4c9;}.j`{fill:#3db4c9;}.ja{fill:#93ba7c;}.jb{fill:#a2bb6f;}.jc{fill:#6db79e;}.jd{fill:#6fb89c;}.je{fill:#a1bb70;}.jf{fill:#70b89b;}.jg{fill:#6eb79d;}.jh{fill:#95ba7b;}.ji{fill:#94ba7b;}.jj{fill:#8aba84;}.jk{fill:#44b4c2;}.jl{fill:#52b5b6;}.jm{fill:#86b988;}.jn{fill:#88b986;}.jo{fill:#85b989;}.jp{fill:#87b987;}.jq{fill:#9b7;}.jr{fill:#9abb76;}.js{fill:#6cb79f;}.jt{fill:#7fb98e;}.ju{fill:#62b7a8;}.jv{fill:#5ab6af;}.jw{fill:#58b6b1;}.jx{fill:#28b2db;}.jy{fill:#29b2da;}.k`{fill:#54b5b4;}.ka{fill:#2bb2d9;}.kb{fill:#63b7a7;}.kc{fill:#49b5be;}.kd{fill:#27b2dc;}.ke{fill:#47b4c0;}.kf{fill:#2ab2d9;}.kg{fill:#5bb6ae;}.kh{fill:#36b3cf;}.ki{fill:#2fb3d5;}.kj{fill:#38b3cd;}.kk{fill:#33b3d1;}.kl{fill:#39b3cc;}.km{fill:#26b2dd;}.kn{fill:#32b3d2;}.ko{fill:#3bb4ca;}.kp{fill:#59b6b0;}.kq{fill:#37b3ce;}.kr{fill:#56b6b2;}.ks{fill:#57b6b2;}.kt{fill:#55b6b3;}.ku{fill:#2db3d7;}.kv{fill:#3ab4cb;}.kw{fill:#81b98c;}.kx{fill:#2cb2d8;}.ky{fill:#4bb5bc;}.l`{fill:#4ab5bd;}.la{fill:#61b6a9;}.lb{fill:#48b5bf;}.lc{fill:#5fb6aa;}.ld{fill:#5eb6ab;}.le{fill:#45b4c2;}.lf{fill:#51b5b7;}.lg{fill:#5cb6ad;}.lh{fill:#74b898;}.li{fill:#75b897;}.lj{fill:#76b896;}.lk{fill:#60b6aa;}.ll{fill:#78b894;}.lm{fill:#79b893;}.ln{fill:#5db6ac;}.lo{fill:#71b89a;}.lp{fill:#46b4c1;}.lq{fill:#77b895;}.lr{fill:#4eb5ba;}.ls{fill:#7bb892;}.lt{fill:#4cb5bb;}.lu{fill:#82b98b;}.lv{fill:#50b5b8;}.lw{fill:#7ab893;}.lx{fill:#4db5ba;}.ly{fill:#53b5b5;}.m`{fill:#4fb5b9;}.i{stroke:#000;stroke-miterlimit:10;stroke-width:7px;}</style></defs><g id="a"/><g id="b"><g id="c"><g><rect class="h" x="4" y="4" width="135.99" height="116.56"/><rect x="81.71" y="42.85" width="19.43" height="19.43"/><rect x="120.56" y="42.85" width="19.43" height="19.43"/><rect x="101.13" y="62.28" width="19.43" height="19.43"/><rect x="4" y="42.85" width="19.43" height="19.43"/><rect x="42.85" y="42.85" width="19.43" height="19.43"/><rect x="81.71" y="4" width="19.43" height="19.43"/><rect x="42.85" y="4" width="19.43" height="19.43"/><rect x="23.43" y="62.28" width="19.43" height="19.43"/><rect x="42.85" y="81.71" width="19.43" height="19.43"/><rect x="4" y="81.71" width="19.43" height="19.43"/><rect x="81.71" y="81.71" width="19.43" height="19.43"/><rect x="120.56" y="81.71" width="19.43" height="19.43"/><rect x="62.28" y="101.13" width="19.43" height="19.43"/><rect x="23.43" y="101.13" width="19.43" height="19.43"/><rect x="101.13" y="101.13" width="19.43" height="19.43"/><rect x="62.28" y="62.28" width="19.43" height="19.43"/><rect x="101.13" y="23.43" width="19.43" height="19.43"/><rect x="23.43" y="23.43" width="19.43" height="19.43"/><rect x="120.56" y="4" width="19.43" height="19.43"/><rect x="62.28" y="23.43" width="19.43" height="19.43"/><rect x="4" y="4" width="19.43" height="19.43"/><path d="M132.71,4c4.02,0,7.28,3.26,7.28,7.28V113.28c0,4.02-3.26,7.28-7.28,7.28H11.28c-4.02,0-7.28-3.26-7.28-7.28V11.28c0-4.02,3.26-7.28,7.28-7.28h121.43m0-4H11.28C5.06,0,0,5.06,0,11.28V113.28c0,6.22,5.06,11.28,11.28,11.28h121.43c6.22,0,11.28-5.06,11.28-11.28V11.28c0-6.22-5.06-11.28-11.28-11.28h0Z"/><rect class="i" x="49.91" y="10.08" width="44.18" height="104.4" rx="20.47" ry="20.47" transform="translate(134.27 -9.71) rotate(90)"/><g><ellipse class="ec" cx="41.08" cy="62.38" rx="20.14" ry="20.41"/><ellipse class="eb" cx="41.26" cy="62.38" rx="20.14" ry="20.41"/><ellipse class="e`" cx="41.44" cy="62.38" rx="20.14" ry="20.41"/><ellipse class="ea" cx="41.63" cy="62.38" rx="20.14" ry="20.41"/><ellipse class="fy" cx="41.81" cy="62.38" rx="20.14" ry="20.41"/><ellipse class="fw" cx="41.99" cy="62.38" rx="20.14" ry="20.41"/><ellipse class="ga" cx="42.17" cy="62.38" rx="20.14" ry="20.41"/><ellipse class="g`" cx="42.36" cy="62.38" rx="20.14" ry="20.41"/><ellipse class="fx" cx="42.54" cy="62.38" rx="20.14" ry="20.41"/><ellipse class="fv" cx="42.72" cy="62.38" rx="20.14" ry="20.41"/><ellipse class="gd" cx="42.91" cy="62.38" rx="20.14" ry="20.41"/><ellipse class="gj" cx="43.09" cy="62.38" rx="20.14" ry="20.41"/><ellipse class="gh" cx="43.27" cy="62.38" rx="20.14" ry="20.41"/><ellipse class="gf" cx="43.45" cy="62.38" rx="20.14" ry="20.41"/><ellipse class="gk" cx="43.64" cy="62.38" rx="20.14" ry="20.41"/><ellipse class="gg" cx="43.82" cy="62.38" rx="20.14" ry="20.41"/><ellipse class="gb" cx="44" cy="62.38" rx="20.14" ry="20.41"/><ellipse class="ib" cx="44.18" cy="62.38" rx="20.14" ry="20.41"/><ellipse class="ic" cx="44.37" cy="62.38" rx="20.14" ry="20.41"/><ellipse class="gc" cx="44.55" cy="62.38" rx="20.14" ry="20.41"/><ellipse class="ge" cx="44.73" cy="62.38" rx="20.14" ry="20.41"/><ellipse class="gi" cx="44.92" cy="62.38" rx="20.14" ry="20.41"/><ellipse class="ia" cx="45.1" cy="62.38" rx="20.14" ry="20.41"/><ellipse class="gp" cx="45.28" cy="62.38" rx="20.14" ry="20.41"/><ellipse class="cl" cx="45.46" cy="62.38" rx="20.14" ry="20.41"/><ellipse class="gq" cx="45.65" cy="62.38" rx="20.14" ry="20.41"/><ellipse class="gm" cx="45.83" cy="62.38" rx="20.14" ry="20.41"/><ellipse class="go" cx="46.01" cy="62.38" rx="20.14" ry="20.41"/><ellipse class="gn" cx="46.2" cy="62.38" rx="20.14" ry="20.41"/><ellipse class="gx" cx="46.38" cy="62.38" rx="20.14" ry="20.41"/><ellipse class="gw" cx="46.56" cy="62.38" rx="20.14" ry="20.41"/><ellipse class="gv" cx="46.74" cy="62.38" rx="20.14" ry="20.41"/><ellipse class="gs" cx="46.93" cy="62.38" rx="20.14" ry="20.41"/><ellipse class="gu" cx="47.11" cy="62.38" rx="20.14" ry="20.41"/><ellipse class="gr" cx="47.29" cy="62.38" rx="20.14" ry="20.41"/><ellipse class="gt" cx="47.47" cy="62.38" rx="20.14" ry="20.41"/><ellipse class="bw" cx="47.66" cy="62.38" rx="20.14" ry="20.41"/><ellipse class="bx" cx="47.84" cy="62.38" rx="20.14" ry="20.41"/><ellipse class="cb" cx="48.02" cy="62.38" rx="20.14" ry="20.41"/><ellipse class="by" cx="48.21" cy="62.38" rx="20.14" ry="20.41"/><ellipse class="c`" cx="48.39" cy="62.38" rx="20.14" ry="20.41"/><ellipse class="ca" cx="48.57" cy="62.38" rx="20.14" ry="20.41"/><ellipse class="cr" cx="48.75" cy="62.38" rx="20.14" ry="20.41"/><ellipse class="cp" cx="48.94" cy="62.38" rx="20.14" ry="20.41"/><ellipse class="co" cx="49.12" cy="62.38" rx="20.14" ry="20.41"/><ellipse class="cm" cx="49.3" cy="62.38" rx="20.14" ry="20.41"/><ellipse class="cq" cx="49.48" cy="62.38" rx="20.14" ry="20.41"/><ellipse class="hg" cx="49.67" cy="62.38" rx="20.14" ry="20.41"/><ellipse class="cn" cx="49.85" cy="62.38" rx="20.14" ry="20.41"/><ellipse class="il" cx="50.03" cy="62.38" rx="20.14" ry="20.41"/><ellipse class="fo" cx="50.22" cy="62.38" rx="20.14" ry="20.41"/><ellipse class="fs" cx="50.4" cy="62.38" rx="20.14" ry="20.41"/><ellipse class="fr" cx="50.58" cy="62.38" rx="20.14" ry="20.41"/><ellipse class="fq" cx="50.76" cy="62.38" rx="20.14" ry="20.41"/><ellipse class="fp" cx="50.95" cy="62.38" rx="20.14" ry="20.41"/><ellipse class="im" cx="51.13" cy="62.38" rx="20.14" ry="20.41"/><ellipse class="io" cx="51.31" cy="62.38" rx="20.14" ry="20.41"/><ellipse class="ip" cx="51.5" cy="62.38" rx="20.14" ry="20.41"/><ellipse class="in" cx="51.68" cy="62.38" rx="20.14" ry="20.41"/><ellipse class="ik" cx="51.86" cy="62.38" rx="20.14" ry="20.41"/><ellipse class="ij" cx="52.04" cy="62.38" rx="20.14" ry="20.41"/><ellipse class="fu" cx="52.23" cy="62.38" rx="20.14" ry="20.41"/><ellipse class="ft" cx="52.41" cy="62.38" rx="20.14" ry="20.41"/><ellipse class="fm" cx="52.59" cy="62.38" rx="20.14" ry="20.41"/><ellipse class="fn" cx="52.77" cy="62.38" rx="20.14" ry="20.41"/><ellipse class="fk" cx="52.96" cy="62.38" rx="20.14" ry="20.41"/><ellipse class="fl" cx="53.14" cy="62.38" rx="20.14" ry="20.41"/><ellipse class="gl" cx="53.32" cy="62.38" rx="20.14" ry="20.41"/><ellipse class="hq" cx="53.51" cy="62.38" rx="20.14" ry="20.41"/><ellipse class="hp" cx="53.69" cy="62.38" rx="20.14" ry="20.41"/><ellipse class="hr" cx="53.87" cy="62.38" rx="20.14" ry="20.41"/><ellipse class="ho" cx="54.05" cy="62.38" rx="20.14" ry="20.41"/><ellipse class="hn" cx="54.24" cy="62.38" rx="20.14" ry="20.41"/><ellipse class="hm" cx="54.42" cy="62.38" rx="20.14" ry="20.41"/><ellipse class="er" cx="54.6" cy="62.38" rx="20.14" ry="20.41"/><ellipse class="es" cx="54.78" cy="62.38" rx="20.14" ry="20.41"/><ellipse class="et" cx="54.97" cy="62.38" rx="20.14" ry="20.41"/><ellipse class="ep" cx="55.15" cy="62.38" rx="20.14" ry="20.41"/><ellipse class="eq" cx="55.33" cy="62.38" rx="20.14" ry="20.41"/><ellipse class="en" cx="55.52" cy="62.38" rx="20.14" ry="20.41"/><ellipse class="eo" cx="55.7" cy="62.38" rx="20.14" ry="20.41"/><ellipse class="ey" cx="55.88" cy="62.38" rx="20.14" ry="20.41"/><ellipse class="f`" cx="56.06" cy="62.38" rx="20.14" ry="20.41"/><ellipse class="ew" cx="56.25" cy="62.38" rx="20.14" ry="20.41"/><ellipse class="ex" cx="56.43" cy="62.38" rx="20.14" ry="20.41"/><ellipse class="eu" cx="56.61" cy="62.38" rx="20.14" ry="20.41"/><ellipse class="ev" cx="56.8" cy="62.38" rx="20.14" ry="20.41"/><ellipse class="fd" cx="56.98" cy="62.38" rx="20.14" ry="20.41"/><ellipse class="fb" cx="57.16" cy="62.38" rx="20.14" ry="20.41"/><ellipse class="fa" cx="57.34" cy="62.38" rx="20.14" ry="20.41"/><ellipse class="fc" cx="57.53" cy="62.38" rx="20.14" ry="20.41"/><ellipse class="ff" cx="57.71" cy="62.38" rx="20.14" ry="20.41"/><ellipse class="fe" cx="57.89" cy="62.38" rx="20.14" ry="20.41"/><ellipse class="dr" cx="58.07" cy="62.38" rx="20.14" ry="20.41"/><ellipse class="do" cx="58.26" cy="62.38" rx="20.14" ry="20.41"/><ellipse class="dp" cx="58.44" cy="62.38" rx="20.14" ry="20.41"/><ellipse class="dx" cx="58.62" cy="62.38" rx="20.14" ry="20.41"/><ellipse class="dy" cx="58.81" cy="62.38" rx="20.14" ry="20.41"/><ellipse class="ds" cx="58.99" cy="62.38" rx="20.14" ry="20.41"/><ellipse class="dq" cx="59.17" cy="62.38" rx="20.14" ry="20.41"/><ellipse class="du" cx="59.35" cy="62.38" rx="20.14" ry="20.41"/><ellipse class="dt" cx="59.54" cy="62.38" rx="20.14" ry="20.41"/><ellipse class="dw" cx="59.72" cy="62.38" rx="20.14" ry="20.41"/><ellipse class="dv" cx="59.9" cy="62.38" rx="20.14" ry="20.41"/><ellipse class="fg" cx="60.09" cy="62.38" rx="20.14" ry="20.41"/><ellipse class="fh" cx="60.27" cy="62.38" rx="20.14" ry="20.41"/><ellipse class="bc" cx="60.45" cy="62.38" rx="20.14" ry="20.41"/><ellipse class="bb" cx="60.63" cy="62.38" rx="20.14" ry="20.41"/><ellipse class="bf" cx="60.82" cy="62.38" rx="20.14" ry="20.41"/><ellipse class="bg" cx="61" cy="62.38" rx="20.14" ry="20.41"/><ellipse class="be" cx="61.18" cy="62.38" rx="20.14" ry="20.41"/><ellipse class="bd" cx="61.36" cy="62.38" rx="20.14" ry="20.41"/><ellipse class="ba" cx="61.55" cy="62.38" rx="20.14" ry="20.41"/><ellipse class="bj" cx="61.73" cy="62.38" rx="20.14" ry="20.41"/><ellipse class="bl" cx="61.91" cy="62.38" rx="20.14" ry="20.41"/><ellipse class="bm" cx="62.1" cy="62.38" rx="20.14" ry="20.41"/><ellipse class="bk" cx="62.28" cy="62.38" rx="20.14" ry="20.41"/><ellipse class="bh" cx="62.46" cy="62.38" rx="20.14" ry="20.41"/><ellipse class="bi" cx="62.64" cy="62.38" rx="20.14" ry="20.41"/><ellipse class="cw" cx="62.83" cy="62.38" rx="20.14" ry="20.41"/><ellipse class="cy" cx="63.01" cy="62.38" rx="20.14" ry="20.41"/><ellipse class="cx" cx="63.19" cy="62.38" rx="20.14" ry="20.41"/><ellipse class="cv" cx="63.37" cy="62.38" rx="20.14" ry="20.41"/><ellipse class="d`" cx="63.56" cy="62.38" rx="20.14" ry="20.41"/><ellipse class="cu" cx="63.74" cy="62.38" rx="20.14" ry="20.41"/><ellipse class="ej" cx="63.92" cy="62.38" rx="20.14" ry="20.41"/><ellipse class="db" cx="64.11" cy="62.38" rx="20.14" ry="20.41"/><ellipse class="da" cx="64.29" cy="62.38" rx="20.14" ry="20.41"/><ellipse class="ek" cx="64.47" cy="62.38" rx="20.14" ry="20.41"/><ellipse class="em" cx="64.65" cy="62.38" rx="20.14" ry="20.41"/><ellipse class="ei" cx="64.84" cy="62.38" rx="20.14" ry="20.41"/><ellipse class="el" cx="65.02" cy="62.38" rx="20.14" ry="20.41"/><ellipse class="dl" cx="65.2" cy="62.38" rx="20.14" ry="20.41"/><ellipse class="hk" cx="65.39" cy="62.38" rx="20.14" ry="20.41"/><ellipse class="hh" cx="65.57" cy="62.38" rx="20.14" ry="20.41"/><ellipse class="hj" cx="65.75" cy="62.38" rx="20.14" ry="20.41"/><ellipse class="hi" cx="65.93" cy="62.38" rx="20.14" ry="20.41"/><ellipse class="de" cx="66.12" cy="62.38" rx="20.14" ry="20.41"/><ellipse class="df" cx="66.3" cy="62.38" rx="20.14" ry="20.41"/><ellipse class="dg" cx="66.48" cy="62.38" rx="20.14" ry="20.41"/><ellipse class="di" cx="66.66" cy="62.38" rx="20.14" ry="20.41"/><ellipse class="dn" cx="66.85" cy="62.38" rx="20.14" ry="20.41"/><ellipse class="dh" cx="67.03" cy="62.38" rx="20.14" ry="20.41"/><ellipse class="dj" cx="67.21" cy="62.38" rx="20.14" ry="20.41"/><ellipse class="dk" cx="67.4" cy="62.38" rx="20.14" ry="20.41"/><ellipse class="ed" cx="67.58" cy="62.38" rx="20.14" ry="20.41"/><ellipse class="eg" cx="67.76" cy="62.38" rx="20.14" ry="20.41"/><ellipse class="eh" cx="67.94" cy="62.38" rx="20.14" ry="20.41"/><ellipse class="ee" cx="68.13" cy="62.38" rx="20.14" ry="20.41"/><ellipse class="ef" cx="68.31" cy="62.38" rx="20.14" ry="20.41"/><ellipse class="dm" cx="68.49" cy="62.38" rx="20.14" ry="20.41"/><ellipse class="ie" cx="68.67" cy="62.38" rx="20.14" ry="20.41"/><ellipse class="if" cx="68.86" cy="62.38" rx="20.14" ry="20.41"/><ellipse class="ig" cx="69.04" cy="62.38" rx="20.14" ry="20.41"/><ellipse class="ii" cx="69.22" cy="62.38" rx="20.14" ry="20.41"/><ellipse class="id" cx="69.41" cy="62.38" rx="20.14" ry="20.41"/><ellipse class="ih" cx="69.59" cy="62.38" rx="20.14" ry="20.41"/><ellipse class="hd" cx="69.77" cy="62.38" rx="20.14" ry="20.41"/><ellipse class="he" cx="69.95" cy="62.38" rx="20.14" ry="20.41"/><ellipse class="hb" cx="70.14" cy="62.38" rx="20.14" ry="20.41"/><ellipse class="ha" cx="70.32" cy="62.38" rx="20.14" ry="20.41"/><ellipse class="h`" cx="70.5" cy="62.38" rx="20.14" ry="20.41"/><ellipse class="hc" cx="70.69" cy="62.38" rx="20.14" ry="20.41"/><ellipse class="hl" cx="70.87" cy="62.38" rx="20.14" ry="20.41"/><ellipse class="dd" cx="71.05" cy="62.38" rx="20.14" ry="20.41"/><ellipse class="hy" cx="71.23" cy="62.38" rx="20.14" ry="20.41"/><ellipse class="i`" cx="71.42" cy="62.38" rx="20.14" ry="20.41"/><ellipse class="hx" cx="71.6" cy="62.38" rx="20.14" ry="20.41"/><ellipse class="hw" cx="71.78" cy="62.38" rx="20.14" ry="20.41"/><ellipse class="dc" cx="71.96" cy="62.38" rx="20.14" ry="20.41"/><ellipse class="hs" cx="72.15" cy="62.38" rx="20.14" ry="20.41"/><ellipse class="hu" cx="72.33" cy="62.38" rx="20.14" ry="20.41"/><ellipse class="ht" cx="72.51" cy="62.38" rx="20.14" ry="20.41"/><ellipse class="hv" cx="72.7" cy="62.38" rx="20.14" ry="20.41"/><ellipse class="fj" cx="72.89" cy="62.38" rx="20.14" ry="20.41"/><ellipse class="fi" cx="73.08" cy="62.38" rx="20.14" ry="20.41"/><ellipse class="ak" cx="73.27" cy="62.38" rx="20.14" ry="20.41"/><ellipse class="aa" cx="73.46" cy="62.38" rx="20.14" ry="20.41"/><ellipse class="ck" cx="73.65" cy="62.38" rx="20.14" ry="20.41"/><ellipse class="cj" cx="73.84" cy="62.38" rx="20.14" ry="20.41"/><ellipse class="ct" cx="74.03" cy="62.38" rx="20.14" ry="20.41"/><ellipse class="ci" cx="74.22" cy="62.38" rx="20.14" ry="20.41"/><ellipse class="bs" cx="74.41" cy="62.38" rx="20.14" ry="20.41"/><ellipse class="cg" cx="74.6" cy="62.38" rx="20.14" ry="20.41"/><ellipse class="av" cx="74.79" cy="62.38" rx="20.14" ry="20.41"/><ellipse class="ax" cx="74.98" cy="62.38" rx="20.14" ry="20.41"/><ellipse class="ae" cx="75.17" cy="62.38" rx="20.14" ry="20.41"/><ellipse class="ac" cx="75.36" cy="62.38" rx="20.14" ry="20.41"/><ellipse class="ap" cx="75.55" cy="62.38" rx="20.14" ry="20.41"/><ellipse class="ad" cx="75.74" cy="62.38" rx="20.14" ry="20.41"/><ellipse class="ab" cx="75.93" cy="62.38" rx="20.14" ry="20.41"/><ellipse class="ao" cx="76.12" cy="62.38" rx="20.14" ry="20.41"/><ellipse class="cd" cx="76.31" cy="62.38" rx="20.14" ry="20.41"/><ellipse class="ce" cx="76.5" cy="62.38" rx="20.14" ry="20.41"/><ellipse class="bu" cx="76.69" cy="62.38" rx="20.14" ry="20.41"/><ellipse class="gy" cx="76.88" cy="62.38" rx="20.14" ry="20.41"/><ellipse class="cf" cx="77.07" cy="62.38" rx="20.14" ry="20.41"/><ellipse class="bv" cx="77.26" cy="62.38" rx="20.14" ry="20.41"/><ellipse class="hf" cx="77.45" cy="62.38" rx="20.14" ry="20.41"/><ellipse class="bn" cx="77.64" cy="62.38" rx="20.14" ry="20.41"/><ellipse class="br" cx="77.83" cy="62.38" rx="20.14" ry="20.41"/><ellipse class="cs" cx="78.02" cy="62.38" rx="20.14" ry="20.41"/><ellipse class="bq" cx="78.21" cy="62.38" rx="20.14" ry="20.41"/><ellipse class="bp" cx="78.4" cy="62.38" rx="20.14" ry="20.41"/><ellipse class="bt" cx="78.59" cy="62.38" rx="20.14" ry="20.41"/><ellipse class="bo" cx="78.78" cy="62.38" rx="20.14" ry="20.41"/><ellipse class="cc" cx="78.97" cy="62.38" rx="20.14" ry="20.41"/><ellipse class="ch" cx="79.16" cy="62.38" rx="20.14" ry="20.41"/><ellipse class="jb" cx="79.35" cy="62.38" rx="20.14" ry="20.41"/><ellipse class="je" cx="79.54" cy="62.38" rx="20.14" ry="20.41"/><ellipse class="v" cx="79.73" cy="62.38" rx="20.14" ry="20.41"/><ellipse class="y" cx="79.92" cy="62.38" rx="20.14" ry="20.41"/><ellipse class="x" cx="80.11" cy="62.38" rx="20.14" ry="20.41"/><ellipse class="af" cx="80.3" cy="62.38" rx="20.14" ry="20.41"/><ellipse class="ah" cx="80.49" cy="62.38" rx="20.14" ry="20.41"/><ellipse class="ai" cx="80.68" cy="62.38" rx="20.14" ry="20.41"/><ellipse class="jr" cx="80.87" cy="62.38" rx="20.14" ry="20.41"/><ellipse class="jq" cx="81.06" cy="62.38" rx="20.14" ry="20.41"/><ellipse class="o" cx="81.25" cy="62.38" rx="20.14" ry="20.41"/><ellipse class="r" cx="81.44" cy="62.38" rx="20.14" ry="20.41"/><ellipse class="s" cx="81.63" cy="62.38" rx="20.14" ry="20.41"/><ellipse class="jh" cx="81.82" cy="62.38" rx="20.14" ry="20.41"/><ellipse class="ji" cx="82.01" cy="62.38" rx="20.14" ry="20.41"/><ellipse class="ja" cx="82.2" cy="62.38" rx="20.14" ry="20.41"/><ellipse class="b`" cx="82.39" cy="62.38" rx="20.14" ry="20.41"/><ellipse class="u" cx="82.58" cy="62.38" rx="20.14" ry="20.41"/><ellipse class="al" cx="82.77" cy="62.38" rx="20.14" ry="20.41"/><ellipse class="an" cx="82.96" cy="62.38" rx="20.14" ry="20.41"/><ellipse class="ay" cx="83.15" cy="62.38" rx="20.14" ry="20.41"/><ellipse class="am" cx="83.34" cy="62.38" rx="20.14" ry="20.41"/><ellipse class="aj" cx="83.53" cy="62.38" rx="20.14" ry="20.41"/><ellipse class="aw" cx="83.72" cy="62.38" rx="20.14" ry="20.41"/><ellipse class="jj" cx="83.91" cy="62.38" rx="20.14" ry="20.41"/><ellipse class="ag" cx="84.1" cy="62.38" rx="20.14" ry="20.41"/><ellipse class="jn" cx="84.29" cy="62.38" rx="20.14" ry="20.41"/><ellipse class="jp" cx="84.48" cy="62.38" rx="20.14" ry="20.41"/><ellipse class="jm" cx="84.67" cy="62.38" rx="20.14" ry="20.41"/><ellipse class="jo" cx="84.86" cy="62.38" rx="20.14" ry="20.41"/><ellipse class="a`" cx="85.05" cy="62.38" rx="20.14" ry="20.41"/><ellipse class="w" cx="85.24" cy="62.38" rx="20.14" ry="20.41"/><ellipse class="lu" cx="85.43" cy="62.38" rx="20.14" ry="20.41"/><ellipse class="kw" cx="85.62" cy="62.38" rx="20.14" ry="20.41"/><ellipse class="l" cx="85.81" cy="62.38" rx="20.14" ry="20.41"/><ellipse class="jt" cx="86" cy="62.38" rx="20.14" ry="20.41"/><ellipse class="m" cx="86.19" cy="62.38" rx="20.14" ry="20.41"/><ellipse class="q" cx="86.38" cy="62.38" rx="20.14" ry="20.41"/><ellipse class="t" cx="86.57" cy="62.38" rx="20.14" ry="20.41"/><ellipse class="ls" cx="86.76" cy="62.38" rx="20.14" ry="20.41"/><ellipse class="lw" cx="86.95" cy="62.38" rx="20.14" ry="20.41"/><ellipse class="lm" cx="87.14" cy="62.38" rx="20.14" ry="20.41"/><ellipse class="ll" cx="87.33" cy="62.38" rx="20.14" ry="20.41"/><ellipse class="lq" cx="87.52" cy="62.38" rx="20.14" ry="20.41"/><ellipse class="lj" cx="87.71" cy="62.38" rx="20.14" ry="20.41"/><ellipse class="li" cx="87.9" cy="62.38" rx="20.14" ry="20.41"/><ellipse class="lh" cx="88.09" cy="62.38" rx="20.14" ry="20.41"/><ellipse class="n" cx="88.28" cy="62.38" rx="20.14" ry="20.41"/><ellipse class="aq" cx="88.47" cy="62.38" rx="20.14" ry="20.41"/><ellipse class="lo" cx="88.66" cy="62.38" rx="20.14" ry="20.41"/><ellipse class="jf" cx="88.85" cy="62.38" rx="20.14" ry="20.41"/><ellipse class="jd" cx="89.04" cy="62.38" rx="20.14" ry="20.41"/><ellipse class="jg" cx="89.23" cy="62.38" rx="20.14" ry="20.41"/><ellipse class="jc" cx="89.42" cy="62.38" rx="20.14" ry="20.41"/><ellipse class="js" cx="89.61" cy="62.38" rx="20.14" ry="20.41"/><ellipse class="p" cx="89.8" cy="62.38" rx="20.14" ry="20.41"/><ellipse class="j" cx="89.99" cy="62.38" rx="20.14" ry="20.41"/><ellipse class="d" cx="90.18" cy="62.38" rx="20.14" ry="20.41"/><ellipse class="e" cx="90.37" cy="62.38" rx="20.14" ry="20.41"/><ellipse class="f" cx="90.56" cy="62.38" rx="20.14" ry="20.41"/><ellipse class="g" cx="90.75" cy="62.38" rx="20.14" ry="20.41"/><ellipse class="ar" cx="90.94" cy="62.38" rx="20.14" ry="20.41"/><ellipse class="k" cx="91.13" cy="62.38" rx="20.14" ry="20.41"/><ellipse class="kb" cx="91.32" cy="62.38" rx="20.14" ry="20.41"/><ellipse class="ju" cx="91.51" cy="62.38" rx="20.14" ry="20.41"/><ellipse class="la" cx="91.7" cy="62.38" rx="20.14" ry="20.41"/><ellipse class="lk" cx="91.89" cy="62.38" rx="20.14" ry="20.41"/><ellipse class="lc" cx="92.08" cy="62.38" rx="20.14" ry="20.41"/><ellipse class="ld" cx="92.27" cy="62.38" rx="20.14" ry="20.41"/><ellipse class="ln" cx="92.46" cy="62.38" rx="20.14" ry="20.41"/><ellipse class="lg" cx="92.65" cy="62.38" rx="20.14" ry="20.41"/><ellipse class="kg" cx="92.84" cy="62.38" rx="20.14" ry="20.41"/><ellipse class="jv" cx="93.03" cy="62.38" rx="20.14" ry="20.41"/><ellipse class="kp" cx="93.22" cy="62.38" rx="20.14" ry="20.41"/><ellipse class="jw" cx="93.41" cy="62.38" rx="20.14" ry="20.41"/><ellipse class="ks" cx="93.6" cy="62.38" rx="20.14" ry="20.41"/><ellipse class="kr" cx="93.79" cy="62.38" rx="20.14" ry="20.41"/><ellipse class="kt" cx="93.98" cy="62.38" rx="20.14" ry="20.41"/><ellipse class="k`" cx="94.17" cy="62.38" rx="20.14" ry="20.41"/><ellipse class="ly" cx="94.36" cy="62.38" rx="20.14" ry="20.41"/><ellipse class="jl" cx="94.55" cy="62.38" rx="20.14" ry="20.41"/><ellipse class="lf" cx="94.74" cy="62.38" rx="20.14" ry="20.41"/><ellipse class="lv" cx="94.93" cy="62.38" rx="20.14" ry="20.41"/><ellipse class="m`" cx="95.12" cy="62.38" rx="20.14" ry="20.41"/><ellipse class="lr" cx="95.31" cy="62.38" rx="20.14" ry="20.41"/><ellipse class="lx" cx="95.5" cy="62.38" rx="20.14" ry="20.41"/><ellipse class="lt" cx="95.69" cy="62.38" rx="20.14" ry="20.41"/><ellipse class="ky" cx="95.88" cy="62.38" rx="20.14" ry="20.41"/><ellipse class="l`" cx="96.07" cy="62.38" rx="20.14" ry="20.41"/><ellipse class="kc" cx="96.26" cy="62.38" rx="20.14" ry="20.41"/><ellipse class="lb" cx="96.45" cy="62.38" rx="20.14" ry="20.41"/><ellipse class="ke" cx="96.64" cy="62.38" rx="20.14" ry="20.41"/><ellipse class="lp" cx="96.83" cy="62.38" rx="20.14" ry="20.41"/><ellipse class="le" cx="97.02" cy="62.38" rx="20.14" ry="20.41"/><ellipse class="jk" cx="97.21" cy="62.38" rx="20.14" ry="20.41"/><ellipse class="ix" cx="97.4" cy="62.38" rx="20.14" ry="20.41"/><ellipse class="iw" cx="97.59" cy="62.38" rx="20.14" ry="20.41"/><ellipse class="ir" cx="97.78" cy="62.38" rx="20.14" ry="20.41"/><ellipse class="iq" cx="97.97" cy="62.38" rx="20.14" ry="20.41"/><ellipse class="it" cx="98.16" cy="62.38" rx="20.14" ry="20.41"/><ellipse class="is" cx="98.35" cy="62.38" rx="20.14" ry="20.41"/><ellipse class="j`" cx="98.54" cy="62.38" rx="20.14" ry="20.41"/><ellipse class="iy" cx="98.73" cy="62.38" rx="20.14" ry="20.41"/><ellipse class="ko" cx="98.92" cy="62.38" rx="20.14" ry="20.41"/><ellipse class="kv" cx="99.11" cy="62.38" rx="20.14" ry="20.41"/><ellipse class="kl" cx="99.3" cy="62.38" rx="20.14" ry="20.41"/><ellipse class="kj" cx="99.49" cy="62.38" rx="20.14" ry="20.41"/><ellipse class="kq" cx="99.68" cy="62.38" rx="20.14" ry="20.41"/><ellipse class="kh" cx="99.87" cy="62.38" rx="20.14" ry="20.41"/><ellipse class="iv" cx="100.06" cy="62.38" rx="20.14" ry="20.41"/><ellipse class="iu" cx="100.25" cy="62.38" rx="20.14" ry="20.41"/><ellipse class="kk" cx="100.44" cy="62.38" rx="20.14" ry="20.41"/><ellipse class="kn" cx="100.63" cy="62.38" rx="20.14" ry="20.41"/><ellipse class="as" cx="100.82" cy="62.38" rx="20.14" ry="20.41"/><ellipse class="au" cx="101.01" cy="62.38" rx="20.14" ry="20.41"/><ellipse class="ki" cx="101.2" cy="62.38" rx="20.14" ry="20.41"/><ellipse class="at" cx="101.39" cy="62.38" rx="20.14" ry="20.41"/><ellipse class="ku" cx="101.58" cy="62.38" rx="20.14" ry="20.41"/><ellipse class="kx" cx="101.77" cy="62.38" rx="20.14" ry="20.41"/><ellipse class="ka" cx="101.96" cy="62.38" rx="20.14" ry="20.41"/><ellipse class="kf" cx="102.15" cy="62.38" rx="20.14" ry="20.41"/><ellipse class="jy" cx="102.34" cy="62.38" rx="20.14" ry="20.41"/><ellipse class="jx" cx="102.53" cy="62.38" rx="20.14" ry="20.41"/><ellipse class="kd" cx="102.72" cy="62.38" rx="20.14" ry="20.41"/><ellipse class="km" cx="102.91" cy="62.38" rx="20.14" ry="20.41"/></g><circle cx="100.73" cy="62.28" r="10.21"/><g><rect x="43.63" y="48.54" width="8.96" height="27.48" rx="4.48" ry="4.48" transform="translate(110.39 14.17) rotate(90)"/><rect x="43.63" y="48.54" width="8.96" height="27.48" rx="4.48" ry="4.48" transform="translate(96.22 124.56) rotate(-180)"/></g></g></g></g></svg>